<svg xmlns="http://www.w3.org/2000/svg" viewBox="0 0 500 338.4"><defs><style>.cls-1{isolation:isolate;}.cls-2{mix-blend-mode:overlay;}.cls-3{fill:#e7257a;}</style></defs><g class="cls-1"><g id="Camada_1" data-name="Camada 1"><g class="cls-2"><path class="cls-3" d="M13.31,420a6.66,6.66,0,1,1-6.66-6.66A6.66,6.66,0,0,1,13.31,420Z" transform="translate(0 -88.26)"/><path class="cls-3" d="M74.15,420a6.66,6.66,0,1,1-6.66-6.66A6.66,6.66,0,0,1,74.15,420Z" transform="translate(0 -88.26)"/><path class="cls-3" d="M135,420a6.66,6.66,0,1,1-6.65-6.66A6.65,6.65,0,0,1,135,420Z" transform="translate(0 -88.26)"/><path class="cls-3" d="M195.82,420a6.66,6.66,0,1,1-6.66-6.66A6.66,6.66,0,0,1,195.82,420Z" transform="translate(0 -88.26)"/><path class="cls-3" d="M256.66,420a6.66,6.66,0,1,1-6.66-6.66A6.66,6.66,0,0,1,256.66,420Z" transform="translate(0 -88.26)"/><path class="cls-3" d="M317.49,420a6.66,6.66,0,1,1-6.65-6.66A6.65,6.65,0,0,1,317.49,420Z" transform="translate(0 -88.26)"/><path class="cls-3" d="M378.33,420a6.66,6.66,0,1,1-6.66-6.66A6.66,6.66,0,0,1,378.33,420Z" transform="translate(0 -88.26)"/><path class="cls-3" d="M439.17,420a6.66,6.66,0,1,1-6.66-6.66A6.66,6.66,0,0,1,439.17,420Z" transform="translate(0 -88.26)"/><circle class="cls-3" cx="493.35" cy="331.75" r="6.65"/><path class="cls-3" d="M13.31,365.83a6.66,6.66,0,1,1-6.66-6.66A6.66,6.66,0,0,1,13.31,365.83Z" transform="translate(0 -88.26)"/><path class="cls-3" d="M74.15,365.83a6.66,6.66,0,1,1-6.66-6.66A6.66,6.66,0,0,1,74.15,365.83Z" transform="translate(0 -88.26)"/><path class="cls-3" d="M135,365.83a6.66,6.66,0,1,1-6.65-6.66A6.65,6.65,0,0,1,135,365.83Z" transform="translate(0 -88.26)"/><path class="cls-3" d="M195.82,365.83a6.66,6.66,0,1,1-6.66-6.66A6.66,6.66,0,0,1,195.82,365.83Z" transform="translate(0 -88.26)"/><path class="cls-3" d="M256.66,365.83a6.66,6.66,0,1,1-6.66-6.66A6.66,6.66,0,0,1,256.66,365.83Z" transform="translate(0 -88.26)"/><path class="cls-3" d="M317.49,365.83a6.66,6.66,0,1,1-6.65-6.66A6.65,6.65,0,0,1,317.49,365.83Z" transform="translate(0 -88.26)"/><path class="cls-3" d="M378.33,365.83a6.66,6.66,0,1,1-6.66-6.66A6.66,6.66,0,0,1,378.33,365.83Z" transform="translate(0 -88.26)"/><path class="cls-3" d="M439.17,365.83a6.66,6.66,0,1,1-6.66-6.66A6.66,6.66,0,0,1,439.17,365.83Z" transform="translate(0 -88.26)"/><path class="cls-3" d="M500,365.83a6.66,6.66,0,1,1-6.65-6.66A6.65,6.65,0,0,1,500,365.83Z" transform="translate(0 -88.26)"/><path class="cls-3" d="M13.31,311.64A6.66,6.66,0,1,1,6.65,305,6.66,6.66,0,0,1,13.31,311.64Z" transform="translate(0 -88.26)"/><path class="cls-3" d="M74.15,311.64A6.66,6.66,0,1,1,67.49,305,6.66,6.66,0,0,1,74.15,311.64Z" transform="translate(0 -88.26)"/><path class="cls-3" d="M135,311.64a6.66,6.66,0,1,1-6.65-6.65A6.66,6.66,0,0,1,135,311.64Z" transform="translate(0 -88.26)"/><path class="cls-3" d="M195.82,311.64a6.66,6.66,0,1,1-6.66-6.65A6.66,6.66,0,0,1,195.82,311.64Z" transform="translate(0 -88.26)"/><path class="cls-3" d="M256.66,311.64A6.66,6.66,0,1,1,250,305,6.66,6.66,0,0,1,256.66,311.64Z" transform="translate(0 -88.26)"/><path class="cls-3" d="M317.49,311.64a6.66,6.66,0,1,1-6.65-6.65A6.66,6.66,0,0,1,317.49,311.64Z" transform="translate(0 -88.26)"/><path class="cls-3" d="M378.33,311.64a6.66,6.66,0,1,1-6.66-6.65A6.66,6.66,0,0,1,378.33,311.64Z" transform="translate(0 -88.26)"/><path class="cls-3" d="M439.17,311.64a6.66,6.66,0,1,1-6.66-6.65A6.66,6.66,0,0,1,439.17,311.64Z" transform="translate(0 -88.26)"/><circle class="cls-3" cx="493.35" cy="223.38" r="6.65"/><path class="cls-3" d="M13.31,257.46a6.66,6.66,0,1,1-6.66-6.65A6.65,6.65,0,0,1,13.31,257.46Z" transform="translate(0 -88.26)"/><path class="cls-3" d="M74.15,257.46a6.66,6.66,0,1,1-6.66-6.65A6.66,6.66,0,0,1,74.15,257.46Z" transform="translate(0 -88.26)"/><path class="cls-3" d="M135,257.46a6.66,6.66,0,1,1-6.65-6.65A6.65,6.65,0,0,1,135,257.46Z" transform="translate(0 -88.26)"/><path class="cls-3" d="M195.82,257.46a6.66,6.66,0,1,1-6.66-6.65A6.65,6.65,0,0,1,195.82,257.46Z" transform="translate(0 -88.26)"/><path class="cls-3" d="M256.66,257.46a6.66,6.66,0,1,1-6.66-6.65A6.66,6.66,0,0,1,256.66,257.46Z" transform="translate(0 -88.26)"/><path class="cls-3" d="M317.49,257.46a6.66,6.66,0,1,1-6.65-6.65A6.65,6.65,0,0,1,317.49,257.46Z" transform="translate(0 -88.26)"/><path class="cls-3" d="M378.33,257.46a6.66,6.66,0,1,1-6.66-6.65A6.65,6.65,0,0,1,378.33,257.46Z" transform="translate(0 -88.26)"/><path class="cls-3" d="M439.17,257.46a6.66,6.66,0,1,1-6.66-6.65A6.66,6.66,0,0,1,439.17,257.46Z" transform="translate(0 -88.26)"/><path class="cls-3" d="M500,257.46a6.66,6.66,0,1,1-6.65-6.65A6.65,6.65,0,0,1,500,257.46Z" transform="translate(0 -88.26)"/><path class="cls-3" d="M13.31,203.28a6.66,6.66,0,1,1-6.66-6.66A6.66,6.66,0,0,1,13.31,203.28Z" transform="translate(0 -88.26)"/><path class="cls-3" d="M74.15,203.28a6.66,6.66,0,1,1-6.66-6.66A6.66,6.66,0,0,1,74.15,203.28Z" transform="translate(0 -88.26)"/><path class="cls-3" d="M135,203.28a6.66,6.66,0,1,1-6.65-6.66A6.65,6.65,0,0,1,135,203.28Z" transform="translate(0 -88.26)"/><path class="cls-3" d="M195.82,203.28a6.66,6.66,0,1,1-6.66-6.66A6.66,6.66,0,0,1,195.82,203.28Z" transform="translate(0 -88.26)"/><path class="cls-3" d="M256.66,203.28a6.66,6.66,0,1,1-6.66-6.66A6.66,6.66,0,0,1,256.66,203.28Z" transform="translate(0 -88.26)"/><path class="cls-3" d="M317.49,203.28a6.66,6.66,0,1,1-6.65-6.66A6.65,6.65,0,0,1,317.49,203.28Z" transform="translate(0 -88.26)"/><path class="cls-3" d="M378.33,203.28a6.66,6.66,0,1,1-6.66-6.66A6.66,6.66,0,0,1,378.33,203.28Z" transform="translate(0 -88.26)"/><path class="cls-3" d="M439.17,203.28a6.66,6.66,0,1,1-6.66-6.66A6.66,6.66,0,0,1,439.17,203.28Z" transform="translate(0 -88.26)"/><path class="cls-3" d="M500,203.28a6.66,6.66,0,1,1-6.65-6.66A6.65,6.65,0,0,1,500,203.28Z" transform="translate(0 -88.26)"/><path class="cls-3" d="M13.31,149.09a6.66,6.66,0,1,1-6.66-6.65A6.66,6.66,0,0,1,13.31,149.09Z" transform="translate(0 -88.26)"/><path class="cls-3" d="M74.15,149.09a6.66,6.66,0,1,1-6.66-6.65A6.66,6.66,0,0,1,74.15,149.09Z" transform="translate(0 -88.26)"/><path class="cls-3" d="M135,149.09a6.66,6.66,0,1,1-6.65-6.65A6.66,6.66,0,0,1,135,149.09Z" transform="translate(0 -88.26)"/><path class="cls-3" d="M195.82,149.09a6.66,6.66,0,1,1-6.66-6.65A6.66,6.66,0,0,1,195.82,149.09Z" transform="translate(0 -88.26)"/><path class="cls-3" d="M256.66,149.09a6.66,6.66,0,1,1-6.66-6.65A6.66,6.66,0,0,1,256.66,149.09Z" transform="translate(0 -88.26)"/><path class="cls-3" d="M317.49,149.09a6.66,6.66,0,1,1-6.65-6.65A6.66,6.66,0,0,1,317.49,149.09Z" transform="translate(0 -88.26)"/><path class="cls-3" d="M378.33,149.09a6.66,6.66,0,1,1-6.66-6.65A6.66,6.66,0,0,1,378.33,149.09Z" transform="translate(0 -88.26)"/><path class="cls-3" d="M439.17,149.09a6.66,6.66,0,1,1-6.66-6.65A6.66,6.66,0,0,1,439.17,149.09Z" transform="translate(0 -88.26)"/><path class="cls-3" d="M500,149.09a6.66,6.66,0,1,1-6.65-6.65A6.66,6.66,0,0,1,500,149.09Z" transform="translate(0 -88.26)"/><path class="cls-3" d="M13.31,94.91a6.66,6.66,0,1,1-6.66-6.65A6.66,6.66,0,0,1,13.31,94.91Z" transform="translate(0 -88.26)"/><path class="cls-3" d="M74.15,94.91a6.66,6.66,0,1,1-6.66-6.65A6.66,6.66,0,0,1,74.15,94.91Z" transform="translate(0 -88.26)"/><path class="cls-3" d="M135,94.91a6.66,6.66,0,1,1-6.65-6.65A6.66,6.66,0,0,1,135,94.91Z" transform="translate(0 -88.26)"/><path class="cls-3" d="M195.82,94.91a6.66,6.66,0,1,1-6.66-6.65A6.66,6.66,0,0,1,195.82,94.91Z" transform="translate(0 -88.26)"/><path class="cls-3" d="M256.66,94.91A6.66,6.66,0,1,1,250,88.26,6.66,6.66,0,0,1,256.66,94.91Z" transform="translate(0 -88.26)"/><path class="cls-3" d="M317.49,94.91a6.66,6.66,0,1,1-6.65-6.65A6.66,6.66,0,0,1,317.49,94.91Z" transform="translate(0 -88.26)"/><path class="cls-3" d="M378.33,94.91a6.66,6.66,0,1,1-6.66-6.65A6.66,6.66,0,0,1,378.33,94.91Z" transform="translate(0 -88.26)"/><path class="cls-3" d="M439.17,94.91a6.66,6.66,0,1,1-6.66-6.65A6.66,6.66,0,0,1,439.17,94.91Z" transform="translate(0 -88.26)"/><path class="cls-3" d="M500,94.91a6.66,6.66,0,1,1-6.65-6.65A6.66,6.66,0,0,1,500,94.91Z" transform="translate(0 -88.26)"/></g></g></g></svg>